<svg id="Layer_1" height="512" viewBox="0 0 512 512" width="512" xmlns="http://www.w3.org/2000/svg" data-name="Layer 1"><path d="m455.4 103h-398.75c-10.66 0-19.65 8.43-19.65 19.09v237.91h438v-237.91c0-10.66-8.94-19.09-19.6-19.09z" fill="#b4b8e6"/><path d="m86.65 103h-30c-10.66 0-19.65 8.43-19.65 19.09v237.91h30v-237.91c0-10.66 8.99-19.09 19.65-19.09z" fill="#979cc1"/><path d="m346.06 480.27a29.293 29.293 0 0 0 -20.62-8.615 19.528 19.528 0 0 1 -19.44-19.435v-31.22h-106v31.22a19.256 19.256 0 0 1 -19.28 19.31 29.046 29.046 0 0 0 -20.475 8.74 29.457 29.457 0 0 0 -8.475 20.73h202.77a29.462 29.462 0 0 0 -8.48-20.73z" fill="#cae6ee"/><path d="m474.65 360h-437.65v43.87c0 10.66 8.99 19.13 19.65 19.13h398.75c10.66 0 19.6-8.47 19.6-19.13v-43.87z" fill="#dfeff2"/><path d="m253.15 399.04a9.655 9.655 0 1 1 9.66-9.66 9.652 9.652 0 0 1 -9.66 9.66z" fill="#7d8595"/><path d="m410.62 255.57-10.73-72.37-105.7 25 40.23 74.99a40.61 40.61 0 0 0 47.53 19.32c17.49-5.37 29-21.65 29-41.15a51.749 51.749 0 0 0 -.33-5.79z" fill="#56b2af"/><path d="m100.58 257.22a40.6 40.6 0 0 0 75.78 25.45l40.74-74.41-105.66-24.36z" fill="#56b2af"/><path d="m265.335 45.92a9.926 9.926 0 0 0 -6.378-2.13c-4.869 0-8.957 3.04-8.957 7.91v16.3h18v-16.3a7.484 7.484 0 0 0 -2.665-5.78z" fill="#6d7486"/><path d="m283.48 65h-48.94c-6.88 0-12.54 6.04-12.54 12.92v9.08h74v-9.99c0-6.88-5.64-12.01-12.52-12.01z" fill="#56b2af"/><path d="m67 403.87v-43.87h-30v43.87c0 10.66 8.99 19.13 19.65 19.13h30c-10.66 0-19.65-8.47-19.65-19.13z" fill="#b9c4c6"/><path d="m130.14 263.2a40.408 40.408 0 0 1 .44-5.98l9.869-66.632-29.009-6.688-10.86 73.32a40.593 40.593 0 0 0 55.153 43.68 40.617 40.617 0 0 1 -25.593-37.7z" fill="#549390"/><path d="m382.33 102.81a68.5 68.5 0 0 0 -44.94-16.81h-163.69a68.8 68.8 0 1 0 43.4 122.256 67.608 67.608 0 0 0 12.8-13.478 30.4 30.4 0 0 1 25.01-12.778h1.46a30.359 30.359 0 0 1 24.95 12.7 67.705 67.705 0 0 0 12.87 13.615 68.749 68.749 0 0 0 88.14-105.5z" fill="#65cecb"/><circle cx="369.73" cy="154.88" fill="#6994fe" r="11.76"/><path d="m337.39 134.3a11.76 11.76 0 1 1 11.76-11.76 11.751 11.751 0 0 1 -11.76 11.76z" fill="#6994fe"/><path d="m337.39 198.98a11.76 11.76 0 1 1 11.76-11.76 11.758 11.758 0 0 1 -11.76 11.76z" fill="#6994fe"/><path d="m337.39 158.02a3.14 3.14 0 1 1 3.15-3.14 3.139 3.139 0 0 1 -3.15 3.14z" fill="#6d7486"/><circle cx="305.06" cy="154.88" fill="#6994fe" r="11.76"/><path d="m275.13 107.49a9.02 9.02 0 1 1 0 18.04h-16.12v-18.04z" fill="#4d8abc"/><path d="m259.01 107.49v18.04h-16.12a9.02 9.02 0 1 1 0-18.04z" fill="#5fa8ed"/><path d="m164.09 211.011a68.751 68.751 0 0 1 -16.46-95.836 68.746 68.746 0 0 1 56.07-29.175h-30a68.8 68.8 0 1 0 15.032 135.954 68.542 68.542 0 0 1 -24.642-10.943z" fill="#529e9a"/><path d="m174.62 112.64a42.74 42.74 0 1 1 -42.74 42.74 42.737 42.737 0 0 1 42.74-42.74z" fill="#6994fe"/><path d="m196.83 147.32v15.12h-15.11v15.11h-15.12v-15.11h-15.11v-15.12h15.11v-15.11h15.12v15.11z" fill="#527acc"/><g fill="#284268"><path d="m242.892 132h32.236c8.283 0 15.022-7.217 15.022-15.5s-6.739-15.5-15.022-15.5h-32.236c-8.284 0-15.022 7.217-15.022 15.5s6.738 15.5 15.022 15.5zm22.108-19h10.128c1.666 0 3.022 1.833 3.022 3.5s-1.356 3.5-3.022 3.5h-10.128zm-22.108 0h10.108v7h-10.108c-1.667 0-3.022-1.833-3.022-3.5s1.355-3.5 3.022-3.5z"/><path d="m369.733 172.64a17.76 17.76 0 1 0 -17.759-17.759 17.78 17.78 0 0 0 17.759 17.759zm0-23.519a5.76 5.76 0 1 1 -5.759 5.76 5.767 5.767 0 0 1 5.759-5.76z"/><path d="m305.056 172.64a17.76 17.76 0 1 0 -17.76-17.759 17.779 17.779 0 0 0 17.76 17.759zm0-23.519a5.76 5.76 0 1 1 -5.76 5.76 5.766 5.766 0 0 1 5.76-5.76z"/><path d="m337.4 169.46a17.76 17.76 0 1 0 17.759 17.76 17.78 17.78 0 0 0 -17.759-17.76zm0 23.519a5.76 5.76 0 1 1 5.759-5.759 5.766 5.766 0 0 1 -5.759 5.759z"/><path d="m337.4 140.3a17.759 17.759 0 1 0 -17.76-17.759 17.779 17.779 0 0 0 17.76 17.759zm0-23.518a5.759 5.759 0 1 1 -5.76 5.759 5.766 5.766 0 0 1 5.76-5.758z"/><path d="m346.537 154.881a9.143 9.143 0 1 0 -9.142 9.142 9.153 9.153 0 0 0 9.142-9.142zm-12 0a2.858 2.858 0 1 1 2.858 2.857 2.861 2.861 0 0 1 -2.858-2.857z"/><path d="m161 168v9.548c0 3.313 2.287 6.452 5.6 6.452h15.125a6.641 6.641 0 0 0 6.275-6.452v-9.548h8.828c3.313 0 6.172-2.243 6.172-5.557v-15.125a6.46 6.46 0 0 0 -1.843-4.4 6.366 6.366 0 0 0 -4.329-1.918h-8.828v-8.787a6.427 6.427 0 0 0 -6.276-6.213h-15.124c-3.314 0-5.6 2.9-5.6 6.213v8.787h-9.506a6.718 6.718 0 0 0 -6.494 6.318v15.125c0 3.314 3.18 5.557 6.494 5.557zm-4-15h9.6c3.313 0 6.4-2.368 6.4-5.682v-9.318h3v9.318a5.505 5.505 0 0 0 5.724 5.682h9.276v3h-9.275c-3.313 0-5.725 3.13-5.725 6.443v9.557h-3v-9.557a6.745 6.745 0 0 0 -6.4-6.443h-9.6z"/><path d="m174.618 204.118a48.737 48.737 0 1 0 -48.738-48.737 48.792 48.792 0 0 0 48.738 48.737zm0-85.474a36.737 36.737 0 1 1 -36.738 36.737 36.778 36.778 0 0 1 36.738-36.737z"/><path d="m455.4 97h-70.728a74.227 74.227 0 0 0 -47.272-17h-35.4v-2.994c0-10.173-8.342-18.006-18.516-18.006h-9.484v-7.3a14.112 14.112 0 0 0 -9-12.915v-9.646a11.5 11.5 0 1 1 23 0v12.509a28.306 28.306 0 0 0 28.271 28.288 6 6 0 0 0 0-12 16.3 16.3 0 0 1 -16.271-16.288v-12.509a23.5 23.5 0 1 0 -47 0v9.907c-5 2.147-9 6.877-9 12.655v7.299h-9.465a18.852 18.852 0 0 0 -18.535 18.919v2.081h-42.311a74.658 74.658 0 0 0 -47.3 17h-69.735c-13.954 0-25.654 11.137-25.654 25.094v281.774c0 13.957 11.7 25.132 25.654 25.132h137.346v23.22a13.307 13.307 0 0 1 -13.29 13.312 35.213 35.213 0 0 0 -34.956 35.218 6.228 6.228 0 0 0 6.011 6.25h202.775a6.218 6.218 0 0 0 6-6.25 35.226 35.226 0 0 0 -35.1-35.093 13.546 13.546 0 0 1 -13.44-13.437v-23.22h143.4c13.957 0 25.6-11.175 25.6-25.132v-281.774c0-13.957-11.645-25.094-25.6-25.094zm-199.4-45.3c0-1.721 2.152-1.907 3-1.907s3 .186 3 1.907v7.3h-6zm-28 26.219a6.961 6.961 0 0 1 6.535-6.919h48.949c3.558 0 6.516 2.449 6.516 6.006v2.994h-62zm-54.3 14.081h163.7a62.9 62.9 0 0 1 62.671 62.281 62.508 62.508 0 0 1 -62.681 62.719h-.047a62.23 62.23 0 0 1 -51.122-26.008 36.181 36.181 0 0 0 -29.851-14.992h-1.47a36.407 36.407 0 0 0 -29.9 15.318 62.82 62.82 0 1 1 -51.3-99.318zm230.967 164.348c2.109 18.733-7.944 35.348-24.475 40.423a34.719 34.719 0 0 1 -40.485-16.417l-30.179-56.268a74.469 74.469 0 0 0 27.81 5.4.181.181 0 0 1 .057 0 74.118 74.118 0 0 0 52.932-22.114 76.448 76.448 0 0 0 6.06-6.916zm-203.167-32.092-30.4 55.534a34.606 34.606 0 0 1 -64.588-21.69l8.45-57.042a74.815 74.815 0 0 0 86.541 23.2zm123.942 253.526a23.115 23.115 0 0 1 22.303 17.218h-189.185a22.938 22.938 0 0 1 22.15-17.218 25.537 25.537 0 0 0 25.29-25.562v-23.22h94v23.22a25.667 25.667 0 0 0 25.442 25.562zm143.558-73.914c0 7.34-6.262 13.132-13.6 13.132h-398.746c-7.34 0-13.654-5.792-13.654-13.132v-37.868h426zm0-49.868h-426v-231.906c0-7.34 6.314-13.094 13.654-13.094h58.065c-.681.877-1.349 1.765-1.993 2.676a74.339 74.339 0 0 0 -12.626 55.829 75.358 75.358 0 0 0 5.14 17.258l-10.6 71.569a46.556 46.556 0 0 0 45.989 53.425 46.815 46.815 0 0 0 40.992-24.206l40.21-73.44a73.216 73.216 0 0 0 12.979-13.879 24.415 24.415 0 0 1 20.103-10.232h1.453a24.393 24.393 0 0 1 20.056 10.159 73.711 73.711 0 0 0 13.046 14.028l39.689 73.942a46.786 46.786 0 0 0 40.992 24.178 46.22 46.22 0 0 0 13.565-2.05c22.175-6.808 35.689-28.757 32.864-53.366-.008-.065-.016-.137-.026-.2l-10.466-70.647a74.477 74.477 0 0 0 -9.762-75.044h59.076c7.34 0 13.6 5.754 13.6 13.094z"/><path d="m253.153 405.04a15.656 15.656 0 1 0 -15.653-15.656 15.673 15.673 0 0 0 15.653 15.656zm0-19.312a3.656 3.656 0 1 1 -3.656 3.656 3.661 3.661 0 0 1 3.656-3.656z"/><path d="m62 129a6 6 0 0 0 -6 6v2a6 6 0 0 0 12 0v-2a6 6 0 0 0 -6-6z"/><path d="m62 150a6 6 0 0 0 -6 6v75a6 6 0 0 0 12 0v-75a6 6 0 0 0 -6-6z"/></g></svg>