<svg id="Capa_1" enable-background="new 0 0 512 512" height="512" viewBox="0 0 512 512" width="512" xmlns="http://www.w3.org/2000/svg"><g><g><path d="m338.566 0h-256.672c-34.695 0-62.822 28.126-62.822 62.822v386.356c0 34.695 28.126 62.822 62.822 62.822h256.673c34.695 0 62.822-28.126 62.822-62.822v-386.356c-.001-34.696-28.127-62.822-62.823-62.822z" fill="#7a8a93"/><path d="m117.516 512h-35.623c-34.696 0-62.82-28.124-62.82-62.82v-386.358c0-34.696 28.124-62.82 62.82-62.82h35.624c-34.686 0-62.82 28.124-62.82 62.82v386.358c-.001 34.696 28.133 62.82 62.819 62.82z" fill="#687780"/><path d="m360.181 77.037v357.925c0 19.79-16.04 35.83-35.83 35.83h-228.246c-19.779 0-35.83-16.04-35.83-35.83v-357.925c0-19.79 16.05-35.83 35.83-35.83h34.995v1.689c0 20.459 16.586 37.045 37.045 37.045h84.176c20.459 0 37.045-16.586 37.045-37.045v-1.689h34.985c19.79 0 35.83 16.04 35.83 35.83z" fill="#9cc6fa"/><path d="m130.368 470.792h-34.263c-19.779 0-35.83-16.04-35.83-35.83v-357.925c0-19.79 16.05-35.83 35.83-35.83h34.264c-19.779 0-35.83 16.04-35.83 35.83v357.925c0 19.79 16.05 35.83 35.829 35.83z" fill="#7fb4fb"/><path d="m251.339 48.934h-82.218c-4.267 0-7.726-3.459-7.726-7.726s3.459-7.726 7.726-7.726h82.218c4.267 0 7.726 3.459 7.726 7.726s-3.459 7.726-7.726 7.726z" fill="#687780"/></g><g fill="#f9f6f6"><path d="m180.97 249.458c-1.977 0-3.955-.755-5.463-2.263l-33.29-33.29c-3.018-3.017-3.018-7.91 0-10.927l33.29-33.29c3.017-3.017 7.91-3.017 10.927 0 3.018 3.017 3.018 7.91 0 10.927l-27.826 27.827 27.826 27.826c3.018 3.017 3.018 7.91 0 10.927-1.51 1.509-3.487 2.263-5.464 2.263z"/><path d="m262.221 249.458c-1.977 0-3.955-.755-5.463-2.263-3.018-3.017-3.018-7.91 0-10.927l27.826-27.826-27.826-27.827c-3.018-3.017-3.018-7.91 0-10.927 3.018-3.018 7.91-3.018 10.927 0l33.29 33.29c3.018 3.017 3.018 7.91 0 10.927l-33.29 33.29c-1.509 1.509-3.486 2.263-5.464 2.263z"/><path d="m205.781 274.366c-.603 0-1.216-.071-1.828-.22-4.147-1.007-6.693-5.184-5.686-9.331l28.251-116.391c1.007-4.146 5.183-6.69 9.331-5.686 4.147 1.007 6.693 5.184 5.686 9.331l-28.251 116.391c-.858 3.534-4.02 5.906-7.503 5.906z"/></g><g><path d="m355.634 384.271-1.234 1.234c-8.23 8.23-18.85 13.652-30.336 15.489l-24.762 3.97-23.758-1.406c-11.407 1.825-21.265-8.034-19.434-19.434l-1.411-23.754 3.968-24.773c1.838-11.486 7.259-22.105 15.49-30.336l1.234-1.234c2.757 1.168 40.055-31.851 42.3-29.607l67.55 67.55c2.244 2.246-30.775 39.545-29.607 42.301z" fill="#ffece4"/><path d="m482.518 207.131-29.988-29.988c-13.879-13.879-36.382-13.879-50.261 0l-15.175 15.175 24.749 55.5 55.5 24.749 15.175-15.175c13.879-13.878 13.879-36.381 0-50.261z" fill="#e28086"/><path d="m428.253 255.136-16.415-7.318-24.744-55.5 15.174-15.174c13.881-13.881 36.38-13.882 50.262 0l23.726 23.726c-13.875-13.875-36.381-13.882-50.262 0l-15.174 15.174z" fill="#dd636e"/><path d="m436.588 303.316-80.961 80.961c-1.162-2.751-2.856-5.324-5.101-7.569-4.674-4.674-10.806-7.012-16.938-6.998-6.106.013-12.185 2.337-16.839 6.992 4.661-4.661 6.979-10.747 6.998-16.846.007-6.125-2.324-12.25-6.998-16.925-4.674-4.674-10.806-7.012-16.938-6.998-6.099.02-12.178 2.344-16.833 6.998 4.661-4.661 6.979-10.747 6.992-16.853.007-6.125-2.324-12.25-6.998-16.925-2.239-2.239-4.819-3.939-7.576-5.108l80.961-80.961 25.321 11.285 12.625 5.626 17.542 7.826 7.819 17.548 5.633 12.631z" fill="#b3e59f"/><path d="m259.071 397.01c-3.662-3.662-3.874-7.182-2.961-12.885l-1.411-23.754 3.968-24.773c1.838-11.486 7.259-22.105 15.489-30.336l1.234-1.234c2.757 1.168 40.056-31.852 42.301-29.607l15.437 15.437-37.188 37.188c-8.23 8.23-15.063 17.439-19.519 26.306l-21.245 42.261c-2.212 4.404 2.222-.277 3.895 1.397z" fill="#ffcbbe"/><path d="m295.935 327.046c-2.927 2.927-5.677 5.979-8.204 9.097 4.128-8.841 2.54-19.697-4.758-26.995-2.245-2.245-4.824-3.945-7.581-5.113l80.959-80.959 55.487 24.744-33.709-2.967z" fill="#95d6a4"/><path d="m426.248 277.049-92.66 92.66c-6.106.013-12.185 2.337-16.839 6.992 4.661-4.661 6.979-10.747 6.998-16.846l92.653-92.653c.932-.932 2.068-1.543 3.263-1.832 2.278-.571 4.793.039 6.585 1.832 2.718 2.718 2.718 7.129 0 9.847z" fill="#95d6a4"/><path d="m436.592 303.319-80.249-80.249c-8.492-8.492-8.492-22.259 0-30.751 8.492-8.492 22.259-8.492 30.751 0l80.249 80.249c8.492 8.492 8.492 22.259 0 30.751-8.491 8.491-22.259 8.491-30.751 0z" fill="#ffe07d"/><path d="m390.007 256.725-33.657-33.657c-8.493-8.493-8.493-22.263-.007-30.749 4.246-4.246 9.812-6.373 15.378-6.373s11.131 2.127 15.378 6.373l33.657 33.657c-4.247-4.247-9.812-6.373-15.378-6.373s-11.132 2.126-15.378 6.373c-8.486 8.486-8.486 22.256.007 30.749z" fill="#ffd064"/><path d="m299.303 404.97-29.968 4.804c-5.703.912-11.02-1.096-14.682-4.758s-5.664-8.972-4.752-14.676l4.804-29.968z" fill="#7a8a93"/><path d="m254.653 405.016c-3.662-3.662-5.664-8.972-4.752-14.676l4.804-29.968 12.103 12.103-11.63 23.142c-2.212 4.404-2.199 7.725-.525 9.399z" fill="#687780"/><path d="m355.64 384.284-.006-.007" fill="#9cc6fa"/></g></g></svg>