<svg id="Capa_1" enable-background="new 0 0 497 497" height="512" viewBox="0 0 497 497" width="512" xmlns="http://www.w3.org/2000/svg"><g><path d="m0 473.394c0 8.284 6.716 15 15 15h449c8.284 0 15-6.716 15-15v-439.788c0-8.284-6.716-15-15-15h-439c-8.284 0-15 6.716-15 15l-10 82.184z" fill="#edf5fa"/><path d="m472 10.606h-20c8.284 0 15 4.716 15 13v449.788c0 8.284-6.716 15-15 15h30c8.284 0 15-6.716 15-15v-357.604l-10-92.184c0-8.285-6.716-13-15-13z" fill="#d0e7f2"/><path d="m109.01 337.549h-40.915c-5.523 0-10-4.477-10-10v-50.915c0-5.523 4.477-10 10-10h40.915c5.523 0 10 4.477 10 10v50.915c0 5.523-4.477 10-10 10z" fill="#fee97d"/><path d="m119.01 266.634h-20c5.523 0 10 4.477 10 10v50.915c0 5.523-4.477 10-10 10h20c5.523 0 10-4.477 10-10v-50.915c0-5.522-4.477-10-10-10z" fill="#fedf30"/><path d="m418.904 337.549h-243.044c-5.523 0-10-4.477-10-10v-50.915c0-5.523 4.477-10 10-10h243.045c5.523 0 10 4.477 10 10v50.915c-.001 5.523-4.478 10-10.001 10z" fill="#978ecb"/><path d="m428.904 266.634h-20c5.523 0 10 4.477 10 10v50.915c0 5.523-4.477 10-10 10h20c5.523 0 10-4.477 10-10v-50.915c0-5.522-4.477-10-10-10z" fill="#6e61b6"/><path d="m109.01 448.418h-40.915c-5.523 0-10-4.477-10-10v-50.915c0-5.523 4.477-10 10-10h40.915c5.523 0 10 4.477 10 10v50.915c0 5.522-4.477 10-10 10z" fill="#6cf5c2"/><path d="m119.01 377.503h-20c5.523 0 10 4.477 10 10v50.915c0 5.523-4.477 10-10 10h20c5.523 0 10-4.477 10-10v-50.915c0-5.523-4.477-10-10-10z" fill="#05e39c"/><path d="m418.904 448.418h-243.044c-5.523 0-10-4.477-10-10v-50.915c0-5.523 4.477-10 10-10h243.045c5.523 0 10 4.477 10 10v50.915c-.001 5.522-4.478 10-10.001 10z" fill="#978ecb"/><path d="m428.904 377.503h-20c5.523 0 10 4.477 10 10v50.915c0 5.523-4.477 10-10 10h20c5.523 0 10-4.477 10-10v-50.915c0-5.523-4.477-10-10-10z" fill="#6e61b6"/><path d="m470 8.606h-455c-8.284 0-15 6.716-15 15v92.184h485v-92.184c0-8.285-6.716-15-15-15z" fill="#978ecb"/><path d="m482 8.606h-30c8.284 0 15 6.716 15 15v92.184h30v-92.184c0-8.285-6.716-15-15-15z" fill="#6e61b6"/><path d="m214.415 62.198c0 9.826-6.965 16.791-16.791 16.791-2.456 0-4.797.502-6.925-.398-6.386-2.701-10.866-9.024-10.866-16.393 0-7.34 4.445-13.642 10.79-16.36 2.149-.921 4.516-.431 7.002-.431 9.825 0 16.79 6.965 16.79 16.791z" fill="#6cf5c2"/><path d="m197.624 44.407c-2.486 0-4.851.513-7 1.434 6.345 2.719 10.791 9.017 10.791 16.357s-4.446 13.638-10.791 16.357c2.149.921 4.514 1.434 7 1.434 9.826 0 17.791-7.965 17.791-17.791s-7.965-17.791-17.791-17.791z" fill="#05e39c"/><path d="m143 62.198c0 9.826-6.965 16.791-16.791 16.791-2.456 0-4.797.502-6.925-.398-6.386-2.701-10.866-9.024-10.866-16.393 0-7.34 4.445-13.642 10.79-16.36 2.149-.921 4.516-.431 7.002-.431 9.825 0 16.79 6.965 16.79 16.791z" fill="#fee97d"/><path d="m126.209 44.407c-2.486 0-4.851.513-7 1.434 6.345 2.719 10.791 9.017 10.791 16.356 0 7.34-4.446 13.638-10.791 16.357 2.149.921 4.514 1.434 7 1.434 9.826 0 17.791-7.965 17.791-17.791 0-9.825-7.965-17.79-17.791-17.79z" fill="#fedf30"/><path d="m71.586 62.198c0 9.826-6.965 16.791-16.791 16.791-2.456 0-4.797.502-6.925-.398-6.386-2.701-10.866-9.024-10.866-16.393 0-7.34 4.445-13.642 10.79-16.36 2.149-.921 4.516-.431 7.002-.431 9.824 0 16.79 6.965 16.79 16.791z" fill="#e592b8"/><path d="m54.795 44.407c-2.486 0-4.851.513-7 1.434 6.345 2.719 10.791 9.017 10.791 16.357s-4.446 13.638-10.791 16.357c2.149.921 4.514 1.434 7 1.434 9.826 0 17.791-7.965 17.791-17.791s-7.966-17.791-17.791-17.791z" fill="#e175a5"/><path d="m109.01 226.681h-40.915c-5.523 0-10-4.477-10-10v-50.915c0-5.523 4.477-10 10-10h40.915c5.523 0 10 4.477 10 10v50.915c0 5.523-4.477 10-10 10z" fill="#e592b8"/><path d="m119.01 155.766h-20c5.523 0 10 4.477 10 10v50.915c0 5.523-4.477 10-10 10h20c5.523 0 10-4.477 10-10v-50.915c0-5.523-4.477-10-10-10z" fill="#e175a5"/><path d="m418.904 226.681h-243.044c-5.523 0-10-4.477-10-10v-50.915c0-5.523 4.477-10 10-10h243.045c5.523 0 10 4.477 10 10v50.915c-.001 5.523-4.478 10-10.001 10z" fill="#978ecb"/><path d="m428.904 155.766h-20c5.523 0 10 4.477 10 10v50.915c0 5.523-4.477 10-10 10h20c5.523 0 10-4.477 10-10v-50.915c0-5.523-4.477-10-10-10z" fill="#6e61b6"/></g></svg>